<?xml version="1.0" encoding="UTF-8"?>
<svg id="Layer_1" data-name="Layer 1" xmlns="http://www.w3.org/2000/svg" viewBox="0 0 1438.54 1697.81">
  <defs>
    <style>
      .cls-1, .cls-2, .cls-3 {
        fill: #4f5951;
      }

      .cls-4, .cls-5, .cls-6, .cls-7, .cls-8, .cls-9, .cls-10, .cls-11 {
        fill: #707972;
      }

      .cls-12 {
        fill: #9e7e5f;
      }

      .cls-12, .cls-13, .cls-2, .cls-14, .cls-15, .cls-5, .cls-16, .cls-6, .cls-17, .cls-18, .cls-19, .cls-20, .cls-21, .cls-22, .cls-23, .cls-24, .cls-25, .cls-7, .cls-26, .cls-8, .cls-27, .cls-28, .cls-9, .cls-3, .cls-29, .cls-10, .cls-30, .cls-11, .cls-31, .cls-32 {
        stroke: #000;
      }

      .cls-12, .cls-13, .cls-14, .cls-15, .cls-16, .cls-6, .cls-17, .cls-18, .cls-19, .cls-20, .cls-21, .cls-22, .cls-23, .cls-24, .cls-25, .cls-33, .cls-7, .cls-26, .cls-8, .cls-27, .cls-28, .cls-9, .cls-29, .cls-10, .cls-30, .cls-31, .cls-32 {
        stroke-linejoin: round;
      }

      .cls-12, .cls-13, .cls-14, .cls-15, .cls-16, .cls-17, .cls-18, .cls-19, .cls-20, .cls-21, .cls-22, .cls-24, .cls-25, .cls-33, .cls-7, .cls-26, .cls-8, .cls-27, .cls-28, .cls-9, .cls-29, .cls-10, .cls-30, .cls-31, .cls-32 {
        stroke-linecap: round;
      }

      .cls-12, .cls-14, .cls-5, .cls-6, .cls-19, .cls-22, .cls-27, .cls-10, .cls-30 {
        stroke-width: 2px;
      }

      .cls-13, .cls-17, .cls-23, .cls-28, .cls-34 {
        fill: #b9bcab;
      }

      .cls-13, .cls-31 {
        stroke-width: 7px;
      }

      .cls-35 {
        fill: #87897c;
      }

      .cls-36, .cls-16, .cls-20 {
        fill: #8c322c;
      }

      .cls-2, .cls-5, .cls-3, .cls-11 {
        stroke-miterlimit: 10;
      }

      .cls-2, .cls-11 {
        stroke-width: .75px;
      }

      .cls-14, .cls-29 {
        fill: #494f4a;
      }

      .cls-15, .cls-21, .cls-22, .cls-24, .cls-25, .cls-33, .cls-26, .cls-31 {
        fill: none;
      }

      .cls-15, .cls-28 {
        stroke-width: 5px;
      }

      .cls-37 {
        fill: #3d3f3f;
      }

      .cls-16, .cls-23, .cls-24, .cls-7, .cls-29 {
        stroke-width: 3px;
      }

      .cls-17, .cls-25, .cls-9, .cls-32 {
        stroke-width: 4px;
      }

      .cls-18 {
        fill: #fff;
        stroke-width: 14px;
      }

      .cls-19 {
        fill: #555b56;
      }

      .cls-20 {
        stroke-width: 20px;
      }

      .cls-33 {
        stroke: #893129;
      }

      .cls-26 {
        stroke-width: 6px;
      }

      .cls-38 {
        font-size: 148px;
      }

      .cls-38, .cls-39 {
        font-family: Castellar, Castellar;
      }

      .cls-8, .cls-3 {
        stroke-width: .5px;
      }

      .cls-39 {
        font-size: 163.58px;
      }

      .cls-27 {
        fill: #a07053;
      }

      .cls-30 {
        fill: #737566;
      }

      .cls-32 {
        fill: #313532;
      }
    </style>
  </defs>
  <path class="cls-20" d="M1428.54,884.4c0,406.38-305.66,718.52-709.4,718.52S10,1308.19,10,901.81,316.56,177.55,720.31,177.55s708.23,300.46,708.23,706.84Z"/>
  <text class="cls-38" transform="translate(319.99 1427.25) rotate(34.89)"><tspan x="0" y="0">e</tspan></text>
  <text class="cls-38" transform="translate(397.94 1481.02) rotate(26)"><tspan x="0" y="0">l</tspan></text>
  <text class="cls-38" transform="translate(488.94 1523.42) rotate(18.7)"><tspan x="0" y="0"> </tspan></text>
  <text class="cls-38" transform="translate(547.07 1543.91) rotate(11.37)"><tspan x="0" y="0">z</tspan></text>
  <text class="cls-38" transform="translate(655.87 1565.49) rotate(.4)"><tspan x="0" y="0">a</tspan></text>
  <text class="cls-38" transform="translate(790.61 1565.55) rotate(-12.35)"><tspan x="0" y="0">q</tspan></text>
  <text class="cls-38" transform="translate(935.39 1531.68) rotate(-25.43)"><tspan x="0" y="0">u</tspan></text>
  <text class="cls-38" transform="translate(1060.05 1469) rotate(-35.97)"><tspan x="0" y="0">e</tspan></text>
  <text class="cls-38" transform="translate(1133.87 1413.69) rotate(-42.81)"><tspan x="0" y="0"> </tspan></text>
  <text class="cls-39" transform="translate(391.02 412.14) rotate(-25.07) scale(1.04 1)"><tspan x="0" y="0">m</tspan></text>
  <text class="cls-39" transform="translate(547.37 340.29) rotate(-10.46) scale(1.04 1)"><tspan x="0" y="0">o</tspan></text>
  <text class="cls-39" transform="translate(686.7 316.09) rotate(1.11) scale(1.04 1)"><tspan x="0" y="0">l</tspan></text>
  <text class="cls-39" transform="translate(788.92 319.21) rotate(9) scale(1.04 1)"><tspan x="0" y="0">i</tspan></text>
  <text class="cls-39" transform="translate(849.87 324.52) rotate(19.1) scale(1.04 1)"><tspan x="0" y="0">n</tspan></text>
  <text class="cls-39" transform="translate(989.5 372.48) rotate(33.09) scale(1.04 1)"><tspan x="0" y="0">o</tspan></text>
  <text class="cls-39" transform="translate(1106.68 452.73) rotate(42.94) scale(1.04 1)"><tspan x="0" y="0"> </tspan></text>
  <ellipse class="cls-18" cx="730.95" cy="880.84" rx="529.94" ry="523.6" transform="translate(-33.07 28.53) rotate(-2.19)"/>
  <ellipse cx="839.11" cy="693.17" rx="1.74" ry="1.49"/>
  <ellipse cx="829.06" cy="707.12" rx="1.74" ry="1.49"/>
  <ellipse cx="819.26" cy="720.53" rx="1.74" ry="1.49"/>
  <polygon class="cls-32" points="551.64 1067.65 558.54 1126.66 595.87 1143.82 592.73 1085.08 551.64 1067.65"/>
  <polygon class="cls-9" points="582.79 1022.83 629.91 1038.7 633.02 1100.9 597.47 1143.82 594 1085.09 593.9 1083.33 551.64 1066.31 582.79 1022.83"/>
  <line class="cls-17" x1="590.9" y1="1084.31" x2="630.51" y2="1038.7"/>
  <g>
    <polygon class="cls-34" points="897.92 739.59 902.33 691.68 928.26 671.71 921.13 801.13 901.99 797.82 889.76 788.43 890.66 772.54 912.58 744 897.92 739.59"/>
    <polygon class="cls-25" points="897.92 739.59 902.33 691.68 928.26 671.71 921.13 801.13 901.99 797.82 889.76 788.43 890.66 772.54 912.58 744 897.92 739.59"/>
  </g>
  <polygon class="cls-17" points="941.76 663.1 935.37 819.93 919.56 820.01 921.13 801.13 928.27 671.7 941.76 663.1"/>
  <g>
    <polygon class="cls-36" points="946.86 822.76 938.39 924.55 864.12 948.19 848.66 928.42 913.72 865 918.15 820.01 932.27 820.01 946.86 822.76"/>
    <polygon class="cls-25" points="918.15 820.01 932.27 820.01 946.86 822.76 938.39 924.55 864.12 948.19 848.66 928.42 913.72 865 918.15 820.01"/>
  </g>
  <polygon class="cls-19" points="799.97 801.13 788.2 944.5 794.08 944.5 807.97 801.13 799.97 801.13"/>
  <g>
    <polygon class="cls-4" points="866.41 809.88 858.51 878.54 794.08 944.5 807.97 801.13 866.41 809.88"/>
    <polygon class="cls-24" points="807.97 801.13 866.41 809.88 858.51 878.54 794.08 944.5 807.97 801.13"/>
  </g>
  <polygon class="cls-7" points="820.25 935.89 794.08 944.5 858.51 878.54 913.72 865 848.66 928.42 820.25 935.89"/>
  <polygon class="cls-7" points="866.41 809.88 921.13 801.13 913.72 865 858.51 878.54 866.41 809.88"/>
  <path class="cls-28" d="M646.76,1046.62l145.31-59.97,25.3,7.3,20.27-8.18.63-6.46s14.67,4.22,23.1-10.3l13.84,3.39-176.49,78.16-35.93,2.1-11.7-4.41-4.33-1.63Z"/>
  <polygon class="cls-30" points="654.85 1069.99 653.13 1048.87 661.61 1053.4 697.32 1051.82 654.85 1069.99"/>
  <polygon class="cls-23" points="864.12 949.46 938.38 925.82 945.4 926.96 951.36 939.84 891.56 963.17 864.12 949.46"/>
  <polygon class="cls-2" points="792.08 980.52 819.5 969.01 837.65 978.93 837.65 985.77 817.38 993.95 792.08 986.65 792.08 980.52"/>
  <path class="cls-11" d="M792.08,980.52l21.87,5.88c2.04.45,4.2.3,6.14-.41l18.18-6.68"/>
  <ellipse class="cls-3" cx="815.8" cy="979.58" rx="9.42" ry="5.11"/>
  <path class="cls-8" d="M810.43,975.1v5.26s7.61,2.75,11.88-.37v-4.89h-11.88Z"/>
  <g>
    <path class="cls-4" d="M816.38,977.98c-3.38,0-6.02-1.54-6.02-3.51s2.65-3.51,6.02-3.51,6.02,1.54,6.02,3.51-2.65,3.51-6.02,3.51Z"/>
    <path d="M816.38,971.34c3.12,0,5.65,1.4,5.65,3.13s-2.53,3.13-5.65,3.13-5.65-1.4-5.65-3.13,2.53-3.13,5.65-3.13M816.38,970.59c-3.59,0-6.4,1.71-6.4,3.88s2.81,3.88,6.4,3.88,6.4-1.71,6.4-3.88-2.81-3.88-6.4-3.88h0Z"/>
  </g>
  <g>
    <g>
      <polygon class="cls-1" points="915.17 801 863.12 809.28 896.68 798.52 915.17 801"/>
      <path class="cls-36" d="M897.6,797.82l.15.36-1.07.34-36.06-4.85v16.01l-57.06-8.54h-8l-11.76,143.36h5.88l24.45-6.6c-12.91,22.97.97,31.11.97,31.11l-27.43,17.65-145.32,59.97-3.6-145.96,57.46-15.18c44.68-81.14,122.93-110.29,122.93-110.29l29.78,7.38,34.8-2.05,6.02-5.73v13.62l7.84,9.39Z"/>
      <polygon class="cls-1" points="896.68 798.52 863.12 809.28 860.63 809.67 860.63 793.67 896.68 798.52"/>
    </g>
    <path class="cls-24" d="M860.63,809.67l2.5-.39,52.04-8.28-18.48-2.48-36.06-4.85v16.01l-57.06-8.54h-8l-11.76,143.36h5.88l24.45-6.6c-12.91,22.97.97,31.11.97,31.11l-27.43,17.65-145.32,59.97-3.6-145.96,57.46-15.18c44.68-81.14,122.93-110.29,122.93-110.29l29.78,7.38,34.8-2.05,6.02-5.73v13.62l7.84,9.39"/>
  </g>
  <g>
    <path class="cls-34" d="M913.71,955.48l-16.93,227.57-10.83-3.02,8.1-110.82-16.07-4.85,4-31.82c16.94-10.13,31.27-75.04,31.72-77.06Z"/>
    <g>
      <line class="cls-26" x1="913.72" y1="955.43" x2="913.71" y2="955.48"/>
      <path class="cls-26" d="M913.71,955.48c-.45,2.02-14.77,66.93-31.72,77.06l-4,31.82,16.07,4.85-8.1,110.82,10.83,3.02,16.93-227.57Z"/>
    </g>
  </g>
  <polygon class="cls-13" points="660.91 1196.12 878 1064.36 894.06 1069.21 893.71 1074.01 662.75 1222.41 660.91 1196.12"/>
  <polygon class="cls-13" points="892.39 1092.07 662.75 1246.39 662.75 1222.41 893.71 1074.01 892.39 1092.07"/>
  <polyline class="cls-13" points="628.28 1118.71 644.3 1123.12 659.07 1118.71 658.86 1251.47 659.53 1354.11 628.52 1363.51 628.28 1239.57 629.05 1119.77"/>
  <ellipse class="cls-5" cx="555.65" cy="884.14" rx="7.24" ry="6.77"/>
  <ellipse class="cls-7" cx="543.49" cy="880.37" rx="20.47" ry="18.26"/>
  <ellipse class="cls-7" cx="486.65" cy="866.36" rx="12.39" ry="9.69"/>
  <ellipse class="cls-7" cx="489.31" cy="866.94" rx="11.92" ry="9.19"/>
  <path class="cls-7" d="M528,869.6l-11.46-3.24s-11.35,5.67-2.35,15.43l9.23,1.44s-1.43-7.54,4.58-13.63Z"/>
  <ellipse class="cls-7" cx="549.98" cy="881.93" rx="15.02" ry="16.48"/>
  <ellipse class="cls-7" cx="554.37" cy="883.22" rx="9.97" ry="10.73"/>
  <path class="cls-7" d="M493.29,863.96l16.35,5.61s-7.03.26-7.09,6.17l-12.58-3.84s-5.1-7.84,3.32-7.94Z"/>
  <path class="cls-7" d="M516.54,866.36l-5.82-.91s-13.12,4.49-5.19,14.92l8.66,1.42s-10.65-8.53,1.37-14.84"/>
  <path class="cls-7" d="M549.98,898.41l-1.57,2.56-25.39,8.68-21.79-6.84v-4.54l-30.74-8.53v-14.94l30.74,7.14s17.44,5.31,18.13,14.97l.54,8.2,30.08-6.69Z"/>
  <polygon class="cls-7" points="509.64 885.57 523.43 883.22 526.79 890.91 519.36 892.71 509.64 885.57"/>
  <polygon class="cls-14" points="519.36 892.71 526.79 890.91 530.87 894.74 520.3 898.27 519.36 892.71"/>
  <path class="cls-10" d="M520.3,898.27l10.57-3.53s8.37,4.29,12.62,3.89-23.59,6.47-23.59,6.47l.4-6.83Z"/>
  <path class="cls-7" d="M514.33,865.28s18.91-7.71,24.47-3.17c0,0-14.53,5.06-10.79,7.49l-13.67-4.32Z"/>
  <path class="cls-29" d="M470.49,874.79l6.04-2.3s9.12,7.01,19.7,1.93l6.32,1.32,2.99,4.63,17.89,2.85-13.79,2.35-39.15-10.78Z"/>
  <polygon class="cls-16" points="642.3 1046.62 652.55 1048.87 654.27 1069.99 642.3 1073.46 642.3 1046.62"/>
  <path class="cls-6" d="M852.84,933.39s-2.51-7.03-19.82-4.36c-6.14.95-11.06,4.41-14.48,8.87-5.32,6.94-14.82,31.12,18.03,39.53"/>
  <ellipse class="cls-10" cx="843.88" cy="955.43" rx="20.33" ry="24.04"/>
  <path class="cls-10" d="M862.78,956.25c0,7.37-6.81,11.01-14.12,13.34-8.07,2.58-14.12-5.97-14.12-13.34s6.32-13.34,14.12-13.34,14.12,5.97,14.12,13.34Z"/>
  <ellipse class="cls-10" cx="852.53" cy="957.51" rx="11.59" ry="13.01"/>
  <path class="cls-10" d="M884.15,955.7l-26.94-7.51s-12.08,0-7.53,17.84l25.53,6.37s-12.08-15.62,8.94-16.7Z"/>
  <path class="cls-27" d="M854.61,686.93l6.9-9.15s2.94.27,15.06-10.03l14.95-19.22s10.98-12.8,23.68-12.19l8.47,6.04s-20.47.6-25.88,13.28c0,0-19.06,27.16-27.76,27.36l-7.76,8.66-7.67-4.75Z"/>
  <path class="cls-12" d="M850.47,669.86l3.55-6.11s1.94-5.43,10.25-5.43l21.31-3.15,3.56-4.58-26.55,4.34s-7.65.31-9.88,5.04l-5.16,7.54,2.92,2.35Z"/>
  <path class="cls-12" d="M876.83,666.43l-26.36,3.44,4.67-7.9s.38-3.04,14-4.37c.12-.01.24-.02.37-.03l16.08-2.38"/>
  <path class="cls-12" d="M923.09,642.14l-81.09,100.1-15.05-2.65,34.73-48.15,7.76-8.66s17.84-14.04,19.69-16.8c1.21-1.8,15.32-21.06,18.77-20.39l15.18-3.45Z"/>
  <polygon class="cls-12" points="907.97 660.8 944.04 654.46 953.48 642.93 948.68 640.38 921.45 644.16 917.27 649.32 907.97 660.8"/>
  <path class="cls-12" d="M917.27,649.32l36.21-6.4"/>
  <path class="cls-22" d="M802.5,735.07l32.21-43.38s4.13-8.5,9.94-8.5h6.29l3.66,3.75,7.08,4.51-34.73,48.15-13.02-2.13,37-54.28"/>
  <g>
    <g>
      <path class="cls-34" d="M659.01,669.36c.04,3.49.07,7.01.1,10.56.1,9.69.19,19.58.29,29.54.23,23.46.39,46.85.51,68.8.15,31.67.21,60.32.23,81.82.01,8.43.01,15.77.01,21.74l.61,1.66-32.07,8.64s-.02-.04-.04-.06h0c-.4-32.66-.67-65.28-.87-97.9-.42-65.83-.56-131.64-.99-197.69,8.76-10.06,15.06-20.32,22.19-31.27v-.34c3.19-.13,6.47-.03,9.41.89l-.12.28c0,20.7.32,59.36.74,103.32Z"/>
      <path class="cls-4" d="M836.4,532.69l.15-.68c2.5-.45,4.93-1.18,7.21-2.17.11.02.21.04.32.06v.24c0-.08,0-.16.01-.23,156.47,30.73,191.64,40.79,200.72,36.49l.12.17c-81.87,83.82-158.31,126.69-191.82,164.19l-15.55,11.84-46.87-8.72,45.72-201.19Z"/>
      <path class="cls-36" d="M629.07,892.89c-.12-.25-.26-.5-.38-.75h0s32.07-8.65,32.07-8.65l16.53-4.46c.23.78,36.34-66.69,100.03-96.44,9-4.2,18.54-7.65,28.61-10.05l3.79.98c2.74.71,5.56,1.44,8.42,2.18-88.18,36.77-122.93,110.29-122.93,110.29l-52.92,17.1-1.24,220.91-15.95-4.86c0-26.61.43-53.26.99-79.93,1.02-48.74,2.47-97.51,2.47-146.14l.51-.19Z"/>
      <path class="cls-37" d="M601.51,618.82l-.33.27c-1.92.2-2.93,1.52-3.02,2.9l-.4.36c-14.48-12-30.76-25.94-38.39-32.56-14.57-12.67-29.17-25.54-43.52-38.4l5.96-3.32c.48-.21.96-.44,1.42-.68l.31.4c19.95,18.42,52.39,47.72,77.98,71.04Z"/>
      <path class="cls-36" d="M836.55,532.01l-.15.68c-3.67.11-14.95,1.06-17.6,1.06-8.23,0-86.85,3.35-95.04,4.02-51.84,4.23-35.45,2.15-96.93,5.36-29.34,1.54-59.5,1.94-88.89,1.94-2.95,0-8.29.66-13.23.87-3.93.18-7.61.07-9.61-.87-2.74-1.28-3.56-3.27-3.86-5.64-.11-10.36-.99-20.71-1.48-31.07,0-3.75.06-7.5.18-11.25l.04-.39c22.21-1.53,44.36-3.99,66.48-6.27,15.89-1.63,31.78-3.31,47.67-5l216.21-21.35v.12c-1.35,3.22-2.64,7.01-3.25,11.26-2.69,18.45-.34,37.19-.51,55.78l.28.66-.29.09Z"/>
      <path class="cls-36" d="M521.81,548.07l2.92-1.63c-.46.36-.97.66-1.5.95-.46.24-.94.47-1.42.68Z"/>
      <path class="cls-36" d="M1048.01,520.78c2.55,1.09,5.11,2.18,7.67,3.26-.88,2.75-2.14,6.89-3.41,11.97-4.39,17.54-3.65,25.26-5.07,28.08-.51.99-1.24,1.76-2.39,2.31-9.08,4.31-44.25-5.76-200.72-36.49.01-.08.02-.16.04-.23.04-.02.08-.04.12-.06l-.12.04c3.02-21.72,3.46-44.02,4.96-66.4h.11c66.03,19.26,132.76,38.26,198.81,57.52Z"/>
      <path class="cls-37" d="M910.08,744.98l-.12.35-46.97,2-25.44-4.73,15.55-11.84c19.1,4.18,38.08,9.39,56.98,14.23Z"/>
      <path class="cls-4" d="M862.99,747.33l46.97-2c-1.82,3.89-4.61,7.39-7.38,10.86-6.62,8.28-13.23,16.56-19.85,24.85l-34.8,2.05c5.44-11.78,10.46-23.71,15.06-35.76Z"/>
      <path class="cls-36" d="M909.56,955.94c3.79,61.53-63.99,127.54-116.22,154.49-52.23,26.96-101.17-8.45-101.17-8.45l-49.88,22.03v-49.44s1.24-1.39,8.1-4.07l220.2-96.86c15.77,5.63,16.71-9.05,16.71-9.05l22.27-8.65Z"/>
      <path class="cls-4" d="M837.55,742.6l25.44,4.73c-4.6,12.05-9.62,23.97-15.06,35.76-10.3-2.37-20.36-4.94-29.78-7.39-2.87-.74-5.68-1.48-8.42-2.18-1.28-.34-2.55-.66-3.79-.98-7.65-1.98-14.66-3.74-20.78-5.06-19.4-4.19-38.69-8.72-57.88-13.55-13.46-3.39-26.85-6.99-40.18-10.75-8.78-7.87-13.96-17.73-20.85-26.88-1.64-2.18-3.33-4.34-5.06-6.48l128.91,26.15c16.88,2.19,38.25,5.32,55.59,8.32l16.25,3.04c-4.69-.97-10.23-2-16.25-3.04l-55.04-10.29.03-.12,46.87,8.72Z"/>
      <path class="cls-4" d="M861.93,747.33l-16.25-3.04c6.02,1.05,11.56,2.07,16.25,3.04Z"/>
      <path class="cls-36" d="M849.1,463c0,.09-.01.18-.01.26-1.49,22.38-1.94,44.67-4.96,66.4h-.03s4.98-66.38,4.98-66.38l.02-.28Z"/>
      <path class="cls-36" d="M849.08,463.28l-4.98,66.39-7.26,2.25-.28-.66,3.75-67.04s.03-.08.05-.13l8.45-.83h.27Z"/>
      <path class="cls-36" d="M840.36,464.1h-.04s.07-1.3.07-1.3c.36,0,.72,0,1.08,0,2.45.03,4.9.19,7.33.46l-8.45.83Z"/>
      <path class="cls-4" d="M704.18,717.84l8.08,1.51,78.39,14.66,55.04,10.29c-17.34-3-38.71-6.13-55.59-8.32l-128.91-26.15s-.01-.03-.03-.04l43.02,8.05Z"/>
      <path class="cls-36" d="M844.26,529.62s-.08.04-.12.06v-.02l.12-.04Z"/>
      <path class="cls-36" d="M844.13,529.66v.02s-.02,0-.03.01v-.02h.03Z"/>
      <path class="cls-36" d="M844.13,529.68c-.01.08-.02.16-.04.23,0,0,0,0-.01,0l.02-.21s.02,0,.03-.01Z"/>
      <path class="cls-36" d="M844.1,529.67v.02c-.11.05-.23.1-.34.15-2.28.98-4.71,1.71-7.21,2.17l.29-.09,7.26-2.25Z"/>
      <path class="cls-36" d="M844.1,529.91c0,.08-.02.16-.03.23v-.24s.03,0,.03,0Z"/>
      <path class="cls-36" d="M840.39,462.81l-.07,1.3-216.21,21.35c6.36-.68,12.73-1.36,19.09-2.04,22.16-2.37,44.32-4.75,66.48-7.13,22.12-2.37,44.24-4.74,66.37-7.08,10.99-1.16,21.97-2.32,32.97-3.46,10.31-1.08,20.97-2.9,31.39-2.94Z"/>
      <path class="cls-36" d="M840.36,464.1s-.04.08-.05.13v-.12s.05,0,.05,0Z"/>
      <path class="cls-36" d="M840.31,464.23l-3.75,67.04c.17-18.59-2.18-37.33.51-55.78.61-4.25,1.9-8.04,3.24-11.26Z"/>
      <path class="cls-4" d="M658.38,565.76c-2.94-.92-6.21-1.02-9.42-.89-1.08.04-2.16.11-3.21.18-.72.05-1.45.1-2.11.34-.96.36-1.64,1.07-2.26,1.8h0c-.07.1-.15.19-.23.28-6.91,8.34-13.42,16.91-19.49,25.71l-.15.23c0,10.76,0,26.1.02,43.77-5.79-5.34-12.62-11.59-20.03-18.34-25.58-23.33-58.02-52.62-77.98-71.04l-.31-.4c.53-.28,1.04-.59,1.5-.95l-.03-.49c4.94-.21,10.28-.87,13.23-.87,29.39,0,59.55-.4,88.89-1.94,61.48-3.22,45.1-1.13,96.93-5.36,8.19-.67,86.82-4.02,95.04-4.02,2.65,0,13.93-.95,17.6-1.06l-45.72,201.19-78.49-14.6c-16.17-16.52-35.46-34.6-53.18-49.92-.42-43.95-.74-82.62-.74-103.32l.12-.28Z"/>
      <path class="cls-4" d="M790.68,733.88l-.03.12-78.39-14.66s-.04-.04-.07-.06l78.49,14.6Z"/>
      <path class="cls-1" d="M776.96,782.02l.36.57c-63.69,29.75-99.8,97.22-100.03,96.44l-16.53,4.46-.61-1.66s47.83-83.55,110.26-99.19v-.34c2.03-.06,4.19-.15,6.55-.28Z"/>
      <path class="cls-1" d="M758.9,782.27c3.72.14,7.36.14,11.49.02v.34c-62.41,15.63-110.25,99.19-110.25,99.19,0-5.98,0-13.31-.01-21.74h.09c0-7.19,43.36-76.22,94.21-78.03,1.53.09,3.01.17,4.47.22Z"/>
      <path class="cls-4" d="M743.99,781.22c3.9.36,7.28.64,10.45.84-50.85,1.81-94.21,70.83-94.21,78.03h-.09c-.01-21.5-.07-50.15-.23-81.82h1.57c2.25-.79,4.58-1.4,6.95-1.82,2.09-.37,4.22-.59,6.35-.76,23.12-1.79,46.11,3.39,69.2,5.54Z"/>
      <path class="cls-4" d="M712.26,719.34l-8.08-1.51s-.03-.04-.04-.05l8.05,1.5s.04.04.07.06Z"/>
      <path class="cls-37" d="M712.19,719.28l-8.05-1.5c-2.95-3.63-4.91-6.03-9.22-10.14-3.4-3.24-8.25-7.54-16.19-14.31-5.69-4.85-11.91-9.23-18.27-13.43h-1.35c-.04-3.54-.07-7.06-.1-10.55,17.72,15.32,37.02,33.41,53.18,49.92Z"/>
      <path class="cls-4" d="M704.14,717.79s.02.03.04.05l-43.02-8.05,42.99,8Z"/>
      <path class="cls-37" d="M704.14,717.79l-42.99-8s-.01-.02-.02-.03c4.79-.89,9.68-1.39,14.59-1.5,6.16-.14,12.35.35,18.45-.34l.75-.28c4.31,4.11,6.27,6.51,9.22,10.14Z"/>
      <path class="cls-35" d="M641.38,567.19h0c.62-.73,1.3-1.45,2.26-1.8.66-.24,1.39-.29,2.11-.34,1.05-.07,2.12-.14,3.21-.18v.34c-7.11,10.95-13.41,21.22-22.17,31.27.43,66.06.57,131.87.99,197.69h-.17c-2.03.92-4.01,1.88-5.95,2.88,0-31.62-.08-102.96-.12-155.86v-4.03c-.01-17.66-.02-33.01-.02-43.77l.15-.23c6.08-8.8,12.58-17.37,19.49-25.71.07-.09.15-.18.23-.28Z"/>
      <path class="cls-4" d="M629.07,892.89l-.51.19c0,48.63-1.44,97.41-2.47,146.14h-.99s-.34-19.21-.34-19.21l-87.69-31.64h0s.26-.53.26-.53l.75-1.53s-5-54.19,14.54-107.05c1.67-4.52,3.52-9.02,5.56-13.48,12.45-27.16,32.22-52.68,63.47-68.73,1.94-1,3.92-1.96,5.95-2.88h.17c.2,32.61.47,65.23.87,97.89h0s-.01.07,0,.08h.04c.12.24.26.49.38.74Z"/>
      <path class="cls-4" d="M628.65,892.07s.02.04.04.06h0s-.04.01-.04.01v-.08Z"/>
      <path class="cls-4" d="M628.65,892.07v.08s0-.06,0-.08Z"/>
      <polygon class="cls-34" points="628.42 1330.36 627.14 1363.51 342.74 1210.14 342.74 924.85 349.78 924.85 380.14 933.42 498 906.34 514.95 910.57 403.43 940.14 537.08 988.36 537.08 988.37 624.76 1020 625.1 1039.21 366.19 949.76 367.77 1188.9 628.42 1330.36"/>
      <path class="cls-36" d="M509.96,496.73l114.14-11.27c-15.88,1.69-31.77,3.37-47.67,5-22.12,2.28-44.26,4.74-66.48,6.27Z"/>
      <path class="cls-37" d="M621.54,637.16v4.03h-.16c-4.9-3.51-13.84-10.74-23.61-18.84l.4-.36c.09-1.38,1.1-2.7,3.02-2.9l.33-.27c7.41,6.75,14.24,13,20.03,18.34Z"/>
      <path class="cls-36" d="M521.81,548.07l-5.96,3.32c1.49-1.6,3.81-2.37,5.96-3.32Z"/>
      <path class="cls-36" d="M511.23,539.44c-.22-1.68-.17-3.55-.34-5.51-.78-8.51-1.13-17.03-1.13-25.55.49,10.36,1.37,20.71,1.48,31.07Z"/>
    </g>
    <g>
      <path class="cls-15" d="M509.93,497.12c-.12,3.75-.18,7.5-.18,11.25,0,8.52.35,17.05,1.13,25.55.18,1.96.12,3.84.34,5.51.29,2.37,1.12,4.36,3.86,5.64,2,.94,5.68,1.05,9.61.87,4.94-.21,10.28-.87,13.23-.87,29.39,0,59.55-.4,88.89-1.94,61.48-3.22,45.1-1.13,96.93-5.36,8.19-.67,86.82-4.02,95.04-4.02,2.65,0,13.93-.95,17.6-1.06.23,0,.43-.01.6-.01"/>
      <path class="cls-25" d="M840.36,464.1s-.04.08-.05.13c-1.34,3.22-2.63,7.01-3.24,11.26-2.69,18.45-.34,37.19-.51,55.78"/>
      <line class="cls-25" x1="840.39" y1="462.81" x2="840.41" y2="462.53"/>
      <path class="cls-21" d="M844.13,529.68s.08-.04.12-.06"/>
      <path class="cls-21" d="M836.55,532.01c2.5-.45,4.93-1.18,7.21-2.17"/>
      <polyline class="cls-15" points="844.26 529.62 844.13 529.66 844.1 529.67 836.84 531.92 836.55 532.01"/>
      <path class="cls-25" d="M509.96,496.73c22.21-1.53,44.36-3.99,66.48-6.27,15.89-1.63,31.78-3.31,47.67-5,6.36-.68,12.73-1.36,19.09-2.04,22.16-2.37,44.32-4.75,66.48-7.13,22.12-2.37,44.24-4.74,66.37-7.08,10.99-1.16,21.97-2.32,32.97-3.46,10.31-1.08,20.97-2.9,31.39-2.94.36,0,.72,0,1.08,0,2.45.03,4.9.19,7.33.46"/>
      <path class="cls-25" d="M849.1,463c0,.09-.01.18-.01.26-1.49,22.38-1.94,44.67-4.96,66.4v.02c-.01.08-.02.16-.04.23,0,.08-.02.16-.03.23"/>
      <line class="cls-25" x1="849.08" y1="463.28" x2="849.1" y2="463"/>
      <path class="cls-25" d="M843.76,529.84c.11.02.21.04.32.06,0,0,.01,0,.01,0,156.47,30.73,191.64,40.79,200.72,36.49,1.15-.54,1.88-1.32,2.39-2.31,1.43-2.82.68-10.53,5.07-28.08,1.27-5.08,2.53-9.23,3.41-11.97-2.56-1.08-5.12-2.17-7.67-3.26-66.06-19.25-132.78-38.25-198.81-57.51"/>
      <path class="cls-24" d="M515.85,551.39c14.35,12.86,28.96,25.73,43.52,38.4,7.63,6.63,23.91,20.56,38.39,32.56,9.77,8.1,18.72,15.33,23.61,18.84"/>
      <path class="cls-21" d="M515.85,551.39c1.49-1.6,3.81-2.37,5.96-3.32.48-.21.96-.44,1.42-.68.53-.28,1.04-.59,1.5-.95"/>
      <polyline class="cls-24" points="524.73 546.44 521.81 548.07 515.85 551.39"/>
      <path class="cls-24" d="M621.66,637.28s-.09-.08-.12-.12c-5.79-5.34-12.62-11.59-20.03-18.34-25.58-23.33-58.02-52.62-77.98-71.04"/>
      <path class="cls-33" d="M575.39,518.46h15.69"/>
      <polyline class="cls-15" points="836.55 532.01 836.4 532.69 790.68 733.88 790.65 734 790.33 735.43"/>
      <path class="cls-21" d="M509.42,495.81c0,4.19.14,8.37.34,12.55.49,10.36,1.37,20.71,1.48,31.07,0,.74.01,1.48.01,2.23h0"/>
      <path class="cls-21" d="M510.46,538.06c0,1.23.28,2.45.78,3.6.97,2.25,2.8,4.24,5.2,5.49"/>
      <path class="cls-24" d="M845.68,744.29c-17.34-3-38.71-6.13-55.59-8.32l-128.91-26.15-1.78-.36"/>
      <path class="cls-24" d="M845.68,744.29l16.25,3.04c-4.69-.97-10.23-2-16.25-3.04Z"/>
      <path class="cls-24" d="M853.11,730.76c19.1,4.18,38.08,9.39,56.98,14.23.07.02.15.04.23.06"/>
      <path class="cls-24" d="M660.88,709.45c.08.1.17.21.25.31,0,.01.01.02.02.03.01.01.02.03.03.04,1.73,2.13,3.42,4.29,5.06,6.48,6.9,9.15,12.07,19.01,20.85,26.88"/>
      <path class="cls-25" d="M661.13,709.76c4.79-.89,9.68-1.39,14.59-1.5,6.16-.14,12.35.35,18.45-.34"/>
      <path class="cls-25" d="M661.05,709.77s.05-.01.08-.01"/>
      <line class="cls-24" x1="661.15" y1="709.79" x2="661.05" y2="709.77"/>
      <path class="cls-21" d="M641.38,567.19c-1.84,2.77-4,5.26-5.85,8.03-.55.82-1.24,1.56-1.71,2.42-1.62,3.03-5.11,5.07-6.54,8.1"/>
      <path class="cls-22" d="M648.96,564.86c3.21-.13,6.49-.03,9.42.89.08.02.15.04.23.07"/>
      <path class="cls-21" d="M641.38,567.19h0c.62-.73,1.3-1.45,2.26-1.8.66-.24,1.39-.29,2.11-.34,1.05-.07,2.12-.14,3.21-.18"/>
      <path class="cls-22" d="M621.66,593.17c6.08-8.8,12.58-17.37,19.49-25.71.07-.09.15-.18.23-.28"/>
      <path class="cls-24" d="M626.79,596.48c8.76-10.06,15.06-20.32,22.19-31.27"/>
      <path class="cls-22" d="M660.46,679.91c6.36,4.2,12.58,8.58,18.27,13.43,7.94,6.77,12.79,11.07,16.19,14.31,4.31,4.11,6.27,6.51,9.22,10.14,0,.01.02.03.04.05.02.03.05.06.07.09"/>
      <path class="cls-22" d="M658.69,669.08c.1.09.21.18.31.28,17.72,15.32,37.02,33.41,53.18,49.92.02.02.04.04.07.06.06.06.12.12.18.18"/>
      <path class="cls-25" d="M1044.93,566.57c-81.87,83.82-158.31,126.69-191.82,164.19l-15.55,11.84h0"/>
      <line class="cls-25" x1="660.84" y1="873.47" x2="660.88" y2="873.47"/>
      <path class="cls-24" d="M818.15,775.7c9.42,2.45,19.48,5.01,29.78,7.39l34.8-2.05c6.62-8.29,13.23-16.57,19.85-24.85,2.77-3.47,5.56-6.97,7.38-10.86l-46.97,2c-4.6,12.05-9.62,23.97-15.06,35.76"/>
      <path class="cls-24" d="M686.12,742.91c.32.09.65.18.97.28,13.33,3.76,26.72,7.36,40.18,10.75,19.19,4.83,38.49,9.36,57.88,13.55,6.12,1.32,13.13,3.08,20.78,5.06,1.24.32,2.51.64,3.79.98"/>
      <path class="cls-22" d="M621.52,593.4c0,10.76,0,26.1.02,43.77v4.03c.04,52.9.12,124.24.12,155.86"/>
      <path class="cls-25" d="M628.69,892.14c.12.25.26.5.38.75.05.11.11.21.16.33"/>
      <path class="cls-25" d="M628.65,892.07s.02.04.04.06"/>
      <path class="cls-25" d="M626.79,596.48c.43,66.06.57,131.87.99,197.69.2,32.61.47,65.23.87,97.89h0v.08s0-.06,0-.08"/>
      <path class="cls-15" d="M658.27,566.04c0,20.7.32,59.36.74,103.32.04,3.49.07,7.01.1,10.56.1,9.69.19,19.58.29,29.54.23,23.46.39,46.85.51,68.8.15,31.67.21,60.32.23,81.82.01,8.43.01,15.77.01,21.74,0,0,47.83-83.55,110.26-99.19"/>
      <path class="cls-25" d="M661.48,778.25c2.25-.78,4.58-1.39,6.95-1.81,2.09-.37,4.22-.59,6.35-.76,23.12-1.79,46.11,3.39,69.2,5.54,3.9.36,7.28.64,10.45.84,1.53.09,3.01.17,4.47.22,3.72.14,7.36.14,11.49.02,2.04-.06,4.21-.15,6.57-.28"/>
      <path class="cls-25" d="M628.65,892.14h.04s32.07-8.66,32.07-8.66l16.53-4.46c.23.78,36.34-66.69,100.03-96.44,9-4.2,18.54-7.65,28.61-10.05l3.79.98c2.74.71,5.56,1.44,8.42,2.18-88.18,36.77-122.93,110.29-122.93,110.29l-52.92,17.1-1.24,220.91-15.95-4.86c0-26.61.43-53.26.99-79.93,1.02-48.74,2.47-97.51,2.47-146.14"/>
      <path class="cls-15" d="M642.3,1124.01l49.88-22.03s48.94,35.41,101.17,8.45c52.23-26.96,120.01-92.96,116.22-154.49l-22.27,8.65s-.94,14.68-16.71,9.05l-220.2,96.86c-6.85,2.68-8.1,4.07-8.1,4.07v49.44Z"/>
      <path class="cls-25" d="M627.61,794.17c-2.03.92-4.01,1.88-5.95,2.88-31.25,16.05-51.02,41.57-63.47,68.73-2.04,4.46-3.89,8.96-5.56,13.48-19.54,52.85-14.54,107.05-14.54,107.05"/>
      <path class="cls-25" d="M660.59,860.68c-.25-.01-.37-.22-.37-.6,0-7.19,43.36-76.22,94.21-78.03.98-.04,1.97-.05,2.96-.03"/>
      <polygon class="cls-31" points="625.1 1039.21 366.19 949.76 367.77 1188.9 628.42 1330.36 627.14 1363.51 342.74 1210.14 342.74 924.85 349.78 924.85 380.14 933.42 498 906.34 514.95 910.57 403.43 940.14 537.08 988.36 537.08 988.37 624.76 1020 625.1 1039.21"/>
    </g>
  </g>
  <path class="cls-12" d="M846.61,668.98l3.25-6.27s1.68-5.51,9.98-5.91l21.14-4.17,3.34-4.74-26.32,5.6s-7.62.68-9.63,5.5l-4.79,7.77,3.03,2.21Z"/>
  <ellipse cx="836.38" cy="692.8" rx="1.74" ry="1.49" transform="translate(-32.1 40.7) rotate(-2.73)"/>
  <ellipse cx="827" cy="707.21" rx="1.74" ry="1.49" transform="translate(-32.8 40.27) rotate(-2.73)"/>
  <ellipse cx="817.85" cy="721.08" rx="1.74" ry="1.49" transform="translate(-33.47 39.84) rotate(-2.73)"/>
  <path class="cls-27" d="M851.55,685.83l6.46-9.46s2.95.13,14.57-10.73l14.02-19.92s10.36-13.3,23.08-13.31l8.75,5.62s-20.42,1.58-25.22,14.5c0,0-17.74,28.04-26.43,28.65l-7.34,9.02-7.88-4.38Z"/>
  <polygon class="cls-12" points="903.62 657.17 939.34 649.12 948.22 637.16 943.3 634.84 916.28 639.91 912.35 645.27 903.62 657.17"/>
  <path class="cls-12" d="M912.35,645.27l35.86-8.12"/>
  <path class="cls-12" d="M872.78,664.29l-26.17,4.69,4.29-8.12s.23-3.06,13.78-5.03c.12-.02.24-.03.36-.05l15.94-3.14"/>
  <path class="cls-12" d="M917.82,637.81l-76.22,103.86-15.16-1.93,32.39-49.76,7.34-9.02s17.15-14.88,18.87-17.72c1.12-1.86,14.3-21.77,17.78-21.26l15-4.17Z"/>
  <path class="cls-22" d="M801.8,736.39l30.1-44.87s3.71-8.69,9.53-8.97l6.28-.3,3.84,3.57,7.29,4.16-32.39,49.76-13.1-1.51,34.37-55.99"/>
  <ellipse class="cls-7" cx="882" cy="964.92" rx="9.57" ry="9.19"/>
</svg>